<mxfile host="65bd71144e">
    <diagram id="s3_ggyqdRwXRnEjcFqcq" name="Page-1">
        <mxGraphModel dx="1582" dy="1995" grid="0" gridSize="10" guides="1" tooltips="1" connect="1" arrows="1" fold="1" page="1" pageScale="1" pageWidth="827" pageHeight="1169" math="0" shadow="0">
            <root>
                <mxCell id="0"/>
                <mxCell id="1" parent="0"/>
                <mxCell id="18" value="" style="rounded=0;whiteSpace=wrap;html=1;strokeColor=#FFFFFF;rotation=0;" parent="1" vertex="1">
                    <mxGeometry y="-30" width="819" height="1166" as="geometry"/>
                </mxCell>
                <mxCell id="34" style="edgeStyle=none;rounded=0;html=1;exitX=0.5;exitY=1;exitDx=0;exitDy=0;endArrow=none;endFill=0;" edge="1" parent="1" source="19" target="21">
                    <mxGeometry relative="1" as="geometry"/>
                </mxCell>
                <mxCell id="19" value="A" style="ellipse;whiteSpace=wrap;html=1;aspect=fixed;" vertex="1" parent="1">
                    <mxGeometry x="358" y="14" width="80" height="80" as="geometry"/>
                </mxCell>
                <mxCell id="31" style="edgeStyle=none;html=1;exitX=1;exitY=0.5;exitDx=0;exitDy=0;entryX=0.5;entryY=0;entryDx=0;entryDy=0;rounded=0;endArrow=block;endFill=1;" edge="1" parent="1" source="21" target="22">
                    <mxGeometry relative="1" as="geometry">
                        <Array as="points">
                            <mxPoint x="608" y="164"/>
                        </Array>
                    </mxGeometry>
                </mxCell>
                <mxCell id="38" style="edgeStyle=none;rounded=0;html=1;exitX=0;exitY=0.5;exitDx=0;exitDy=0;entryX=0.5;entryY=0;entryDx=0;entryDy=0;endArrow=none;endFill=0;" edge="1" parent="1" source="21" target="25">
                    <mxGeometry relative="1" as="geometry">
                        <mxPoint x="398" y="615" as="targetPoint"/>
                        <Array as="points">
                            <mxPoint x="222" y="164"/>
                            <mxPoint x="222" y="598"/>
                            <mxPoint x="398" y="598"/>
                        </Array>
                    </mxGeometry>
                </mxCell>
                <mxCell id="21" value="2 младших байта&lt;br&gt;&amp;nbsp;счётчика таймера = 176?" style="rhombus;whiteSpace=wrap;html=1;rotation=0;" vertex="1" parent="1">
                    <mxGeometry x="268" y="114" width="260" height="100" as="geometry"/>
                </mxCell>
                <mxCell id="32" style="edgeStyle=none;rounded=0;html=1;exitX=1;exitY=0.5;exitDx=0;exitDy=0;entryX=0.5;entryY=0;entryDx=0;entryDy=0;endArrow=block;endFill=1;" edge="1" parent="1" source="22" target="23">
                    <mxGeometry relative="1" as="geometry">
                        <Array as="points">
                            <mxPoint x="777" y="233"/>
                            <mxPoint x="777" y="319"/>
                            <mxPoint x="608" y="319"/>
                        </Array>
                    </mxGeometry>
                </mxCell>
                <mxCell id="42" style="edgeStyle=none;rounded=0;html=1;exitX=0;exitY=0.5;exitDx=0;exitDy=0;entryX=0.5;entryY=1;entryDx=0;entryDy=0;endArrow=none;endFill=0;" edge="1" parent="1" source="22" target="24">
                    <mxGeometry relative="1" as="geometry">
                        <Array as="points">
                            <mxPoint x="440" y="233"/>
                            <mxPoint x="440" y="581"/>
                            <mxPoint x="608" y="581"/>
                        </Array>
                    </mxGeometry>
                </mxCell>
                <mxCell id="22" value="2 старших байта&lt;br&gt;&amp;nbsp;счётчика таймера = 24?" style="rhombus;whiteSpace=wrap;html=1;rotation=0;" vertex="1" parent="1">
                    <mxGeometry x="478" y="183" width="260" height="100" as="geometry"/>
                </mxCell>
                <mxCell id="36" style="edgeStyle=none;rounded=0;html=1;exitX=0.5;exitY=1;exitDx=0;exitDy=0;endArrow=none;endFill=0;" edge="1" parent="1" source="23" target="24">
                    <mxGeometry relative="1" as="geometry"/>
                </mxCell>
                <mxCell id="23" value="Обнулить 2 старших и младших байта счётчика таймера (адреса 0040:006Eh и 0040:006Ch соответственно)" style="rounded=0;whiteSpace=wrap;html=1;rotation=0;" vertex="1" parent="1">
                    <mxGeometry x="478" y="332" width="260" height="100" as="geometry"/>
                </mxCell>
                <mxCell id="24" value="Установить значение 1 по адресу 0040:0070h" style="rounded=0;whiteSpace=wrap;html=1;rotation=0;" vertex="1" parent="1">
                    <mxGeometry x="478" y="463" width="260" height="100" as="geometry"/>
                </mxCell>
                <mxCell id="43" style="edgeStyle=none;rounded=0;html=1;exitX=0.5;exitY=0;exitDx=0;exitDy=0;endArrow=none;endFill=0;" edge="1" parent="1" source="25">
                    <mxGeometry relative="1" as="geometry">
                        <mxPoint x="522" y="581" as="targetPoint"/>
                        <mxPoint x="398" y="615" as="sourcePoint"/>
                        <Array as="points">
                            <mxPoint x="398" y="597"/>
                            <mxPoint x="522" y="597"/>
                        </Array>
                    </mxGeometry>
                </mxCell>
                <mxCell id="25" value="Декрементировать счётчик времени до отключения моторчика дисковода по адресу 0040:0040h" style="rounded=0;whiteSpace=wrap;html=1;rotation=0;" vertex="1" parent="1">
                    <mxGeometry x="268" y="611" width="260" height="100" as="geometry"/>
                </mxCell>
                <mxCell id="33" style="edgeStyle=none;rounded=0;html=1;exitX=1;exitY=0.5;exitDx=0;exitDy=0;entryX=0.5;entryY=0;entryDx=0;entryDy=0;endArrow=block;endFill=1;" edge="1" parent="1" source="26" target="27">
                    <mxGeometry relative="1" as="geometry">
                        <Array as="points">
                            <mxPoint x="622" y="779"/>
                        </Array>
                    </mxGeometry>
                </mxCell>
                <mxCell id="44" style="edgeStyle=none;rounded=0;html=1;exitX=0;exitY=0.5;exitDx=0;exitDy=0;entryX=0.5;entryY=0;entryDx=0;entryDy=0;endArrow=none;endFill=0;" edge="1" parent="1" source="26" target="29">
                    <mxGeometry relative="1" as="geometry">
                        <Array as="points">
                            <mxPoint x="224" y="779"/>
                            <mxPoint x="229" y="1062"/>
                            <mxPoint x="400" y="1062"/>
                        </Array>
                    </mxGeometry>
                </mxCell>
                <mxCell id="26" value="Счётчик времени до&lt;br&gt;&amp;nbsp;отключения&amp;nbsp;моторчика дисковода&lt;br&gt;&amp;nbsp;по адресу 0040:0040h = 0?" style="rhombus;whiteSpace=wrap;html=1;rotation=0;" vertex="1" parent="1">
                    <mxGeometry x="268" y="729" width="260" height="100" as="geometry"/>
                </mxCell>
                <mxCell id="27" value="Установить флаг отключения моторчика дисковода" style="rounded=0;whiteSpace=wrap;html=1;rotation=0;" vertex="1" parent="1">
                    <mxGeometry x="492" y="817" width="260" height="100" as="geometry"/>
                </mxCell>
                <mxCell id="45" style="edgeStyle=none;rounded=0;html=1;exitX=0.5;exitY=1;exitDx=0;exitDy=0;endArrow=none;endFill=0;" edge="1" parent="1" source="28">
                    <mxGeometry relative="1" as="geometry">
                        <mxPoint x="401" y="1078" as="targetPoint"/>
                        <Array as="points">
                            <mxPoint x="622" y="1062"/>
                            <mxPoint x="401" y="1062"/>
                        </Array>
                    </mxGeometry>
                </mxCell>
                <mxCell id="28" value="Послать команду 20h в порт 20h" style="rounded=0;whiteSpace=wrap;html=1;rotation=0;" vertex="1" parent="1">
                    <mxGeometry x="492" y="935" width="260" height="100" as="geometry"/>
                </mxCell>
                <mxCell id="29" value="Б" style="ellipse;whiteSpace=wrap;html=1;aspect=fixed;" vertex="1" parent="1">
                    <mxGeometry x="360" y="1078" width="80" height="80" as="geometry"/>
                </mxCell>
                <mxCell id="46" value="Да" style="text;html=1;resizable=0;autosize=1;align=center;verticalAlign=middle;points=[];fillColor=none;strokeColor=none;rounded=0;" vertex="1" parent="1">
                    <mxGeometry x="534" y="755" width="25" height="18" as="geometry"/>
                </mxCell>
                <mxCell id="47" value="Да" style="text;html=1;resizable=0;autosize=1;align=center;verticalAlign=middle;points=[];fillColor=none;strokeColor=none;rounded=0;" vertex="1" parent="1">
                    <mxGeometry x="740" y="210" width="25" height="18" as="geometry"/>
                </mxCell>
                <mxCell id="49" value="Да" style="text;html=1;resizable=0;autosize=1;align=center;verticalAlign=middle;points=[];fillColor=none;strokeColor=none;rounded=0;" vertex="1" parent="1">
                    <mxGeometry x="528" y="141" width="25" height="18" as="geometry"/>
                </mxCell>
            </root>
        </mxGraphModel>
    </diagram>
</mxfile>